<svg xmlns="http://www.w3.org/2000/svg" xmlns:xlink="http://www.w3.org/1999/xlink" viewBox="0 0 440.88 257.47"><defs><style>.cls-1{fill:url(#Degradado_sin_nombre_4);}.cls-2{fill:#005086;}.cls-3{fill:#86858a;}.cls-4{fill:#204f83;}</style><linearGradient id="Degradado_sin_nombre_4" x1="8.75" y1="115.91" x2="97.22" y2="115.91" gradientUnits="userSpaceOnUse"><stop offset="0" stop-color="#005086"/><stop offset="0.5" stop-color="#009bdb"/><stop offset="1" stop-color="#005086"/></linearGradient></defs><title>lamb</title><g id="Objects"><path class="cls-1" d="M33.39,157.75c-21.54,21.54-11.64,42.35.93,48.07,1.1.51,1.54-.39.7-1.12-10.08-8.73-7-23.41,5.65-36.08l35.81-35.81c11.25-11.25,20.69-20.94,20.69-31.54V84.74c0-1-1.15-1-1.36,0C93,98.23,87.64,103.53,76.52,114.66ZM97.22,72.17V55.52c0-1-1.16-1-1.36,0-2.79,13.49-8.17,18.9-19.3,30L32.17,129.9C10.63,151.44,6.9,172.29,17.86,185.69c.73.89,1.52.36,1-.72-7.24-16.39,10.13-33.77,18.4-42l39.22-39.22C87.77,92.46,97.22,82.77,97.22,72.17ZM27.5,105.57C9,124.1,6.39,143.7,10.35,156.48c.33,1.09,1.27,1.16,1.26,0-.09-10.74,3-20,22.61-39.57L76.48,74.67c11.25-11.25,20.7-20.94,20.7-31.54V26.6c0-1-1.16-1-1.36,0C93,40.09,87.64,45.42,76.51,56.54Z"/><path class="cls-2" d="M92,161.14a2.28,2.28,0,1,0-2.25,1.92A2.1,2.1,0,0,0,92,161.14Z"/><path class="cls-2" d="M95.73,149.7a16.8,16.8,0,0,0-9.52-3.45,7.63,7.63,0,0,0-2.41.45,6.34,6.34,0,0,0-4,3.3,10.21,10.21,0,0,0-7.31.91A14.19,14.19,0,0,0,67,155c-5.2,6.75-2.73,13.1-2.73,13.1a14.14,14.14,0,0,0,3.81,2.43,11.24,11.24,0,0,0,8.18.15,9.63,9.63,0,0,0,4.83-3.45,11.78,11.78,0,0,0,1.6-6.11H79.91c-.21,2.32-.68,3.28-1.84,4.44a6.81,6.81,0,0,1-6.19,2.09,8.27,8.27,0,0,1-3.7-1.52c-.54-3.53.86-6.1,3.55-8.19a10.59,10.59,0,0,1,2.07-1.27,8.08,8.08,0,0,1,7.53.26c1.25.7,3,1.51,4.61.78a3,3,0,0,0,2.14-2.81,3.75,3.75,0,0,0-1.85-3.65l-.11-.15c2.68,0,5.41,1.59,6.78,2.57,7.16,5.07,13,16.14,9.95,25.16a2.73,2.73,0,0,1-1.91,1.94,8.42,8.42,0,0,1-2.33.31c-6.55,0-15.42-5.93-15.51-6l-.44-.29-.13.51s-.4,1.64-.77,2.73a10.49,10.49,0,0,1-13.62,6.45L66,183.69l-.75,2.19a11.11,11.11,0,0,1-6.77,6.88v.33A37.23,37.23,0,0,0,62.16,196a16.41,16.41,0,0,0,2.49-1.67A17.71,17.71,0,0,0,68.8,189c8.52,2.2,13.55-2.46,16-6.86,4.83,2.52,9.77,4,13.61,4a12.16,12.16,0,0,0,4.15-.67,7.82,7.82,0,0,0,4.88-5C111.29,169.11,104.5,155.92,95.73,149.7Z"/><path class="cls-2" d="M141.1,171.53h0a60.27,60.27,0,0,0-.54-8.22l-6.16-.44a54.15,54.15,0,0,0-1.24-5.71l5.38-3.08a58.69,58.69,0,0,0-2.94-7.65l-6,1.39a52.24,52.24,0,0,0-2.92-5.16l4.21-4.52a60,60,0,0,0-5-6.41l-5.32,3.1a51.67,51.67,0,0,0-4.38-4.12l2.7-5.54a59.32,59.32,0,0,0-6.69-4.62L108,125.08a51.71,51.71,0,0,0-5.45-2.65l.94-6.1a59.71,59.71,0,0,0-6.52-2.1c-3.51,6.65-9.91,13.26-17.14,20.5.76,0,1.52-.08,2.3-.08a36.6,36.6,0,1,1-36.6,36.6c0-.77,0-1.54.08-2.3l-2.29,2.29c-5.78,5.78-9.55,12-11,17.82l.4,1.05h0c.09.24.2.48.29.72s.25.62.38.93.19.45.29.68c.17.39.34.8.52,1.19l.07.11a52.75,52.75,0,0,0,5,8.47l.1.17a53.14,53.14,0,0,0,3.48,4.3l-3.56,5.18a56.83,56.83,0,0,0,6.16,5.65l4.91-3.94a53.79,53.79,0,0,0,4.54,3.06l-1.88,6a58.27,58.27,0,0,0,7.56,3.61L64.07,221c.62.22,1.25.42,1.87.62h0c.55.18,1.11.34,1.67.5l.6.17,1,.29,0,6.29a59.5,59.5,0,0,0,8.3,1.24l1.84-6h.49c.35,0,.71,0,1.07,0s.76,0,1.15,0c.91,0,1.81,0,2.71-.07l1.84,6a60,60,0,0,0,8.3-1.24l0-6.29h0a54,54,0,0,0,5.21-1.58l3.53,5.21a58.77,58.77,0,0,0,7.55-3.61l-1.87-6a52.55,52.55,0,0,0,4.56-3.06l4.89,3.92a58.76,58.76,0,0,0,6.16-5.65l-3.54-5.14a53.68,53.68,0,0,0,3.5-4.32l5.82,2.3a58.34,58.34,0,0,0,4.22-7.17l-4.88-3.86a53.13,53.13,0,0,0,2.12-5.24l6.23.49a58.66,58.66,0,0,0,1.89-8.06l-5.78-2.25a54,54,0,0,0,.48-5.72Z"/><path class="cls-2" d="M23.92,181.07a1.55,1.55,0,0,1,0-.23l-.09,0C23.89,180.93,23.91,181,23.92,181.07Z"/><path class="cls-3" d="M176.65,66.8v66.35h37.16v13H163.86V66.8Z"/><path class="cls-3" d="M274.69,131.18H236.91l-6.19,14.95H216.8L249.22,66.8h13.17l32.41,79.33h-14ZM255.8,83.46l-13.42,34.62h26.84Z"/><path class="cls-3" d="M363.65,91.21,340.12,146h-2.69l-23-54.86v55.15H301.63V66.91h15.69l21.76,51,21.77-51h15.58v79.34H363.65Z"/><path class="cls-4" d="M184.69,169.05c-1.11-1.85-4.15-3.6-7.65-3.6-4.52,0-6.69,1.89-6.69,4.29,0,2.81,3.32,3.6,7.19,4.06,6.73.83,13,2.58,13,10.28,0,7.19-6.37,10.28-13.56,10.28-6.59,0-11.67-2-14.07-7.93L168,183.8c1.43,3.55,5.16,5.12,9.08,5.12s7.42-1.34,7.42-4.84c0-3-3.18-4.29-7.46-4.75-6.6-.78-12.69-2.54-12.69-9.78,0-6.64,6.55-9.36,12.5-9.4,5,0,10.24,1.43,12.68,6.41Z"/><path class="cls-4" d="M223.69,189.48a17,17,0,0,1-12.26,4.79c-12,0-17.07-8.25-17.11-16.65s5.44-17,17.11-17a16.66,16.66,0,0,1,11.85,4.93l-4.06,3.92a11.1,11.1,0,0,0-7.79-3c-7.8,0-11.16,5.81-11.12,11.2s3.14,10.93,11.12,10.93a11.87,11.87,0,0,0,8.11-3.27Z"/><path class="cls-4" d="M249.09,193.58V180.53H233.23v13.05h-6.09V161.3h6.09v13.6h15.86V161.3h6v32.28Z"/><path class="cls-4" d="M292.57,177.58c-.1,8.34-5.22,16.69-16.56,16.69s-16.6-8.16-16.6-16.65,5.44-17,16.6-17S292.66,169.14,292.57,177.58Zm-27.17.14c.14,5.3,3,11,10.61,11s10.47-5.72,10.56-11-2.95-11.53-10.56-11.53S265.27,172.28,265.4,177.72Z"/><path class="cls-4" d="M328.76,177.58c-.09,8.34-5.21,16.69-16.56,16.69s-16.6-8.16-16.6-16.65,5.44-17,16.6-17S328.85,169.14,328.76,177.58Zm-27.16.14c.13,5.3,3,11,10.6,11s10.47-5.72,10.56-11-2.95-11.53-10.56-11.53S301.46,172.28,301.6,177.72Z"/><path class="cls-4" d="M339.3,161.25v26.66h16.61v5.62H333.22V161.25Z"/><path class="cls-3" d="M420,105.11a16.26,16.26,0,0,0,9.39-15.3c0-16-10.63-23-24.88-23H383.63V80.4h20.85c8.67,0,11.36,6.12,11.36,9.75,0,4.53-2.79,8.5-11.36,8.5H383.63v13.14h20.85c5.58,0,13.52,3.75,13.52,10.88,0,7.49-7.94,9.52-13.52,9.52H383.63v13.94h20.85c15,0,27-5.66,27-23.34C431.53,117.8,428.43,107.94,420,105.11Z"/></g></svg>